<svg id="Layer_1" viewBox="0 0 24 24" xmlns="http://www.w3.org/2000/svg" data-name="Layer 1"><path d="m21.977 2.786c-.083-.381-.381-.679-.762-.762-.19-.042-4.714-1.023-9.215-1.023s-9.024.98-9.215 1.022c-.381.083-.679.381-.762.762-.042.19-1.023 4.713-1.023 9.214s.981 9.024 1.023 9.214c.083.381.381.679.762.762.19.042 4.714 1.023 9.215 1.023s9.024-.981 9.215-1.023c.381-.083.679-.381.762-.762.042-.19 1.023-4.713 1.023-9.214s-.981-9.024-1.023-9.214zm-9.977 15.714c-1.691 0-3.208-1.071-3.771-2.667-.185-.521.088-1.092.609-1.275.519-.186 1.093.088 1.275.609.282.797 1.041 1.333 1.887 1.333 1.103 0 2-.897 2-2s-.897-2-2-2c-1.93 0-3.5-1.57-3.5-3.5s1.57-3.5 3.5-3.5c1.392 0 2.651.824 3.208 2.1.222.506-.01 1.096-.516 1.316-.506.227-1.096-.01-1.316-.516-.239-.547-.779-.9-1.376-.9-.827 0-1.5.673-1.5 1.5s.673 1.5 1.5 1.5c2.206 0 4 1.794 4 4s-1.794 4-4 4z" fill="#ffffff"/></svg>