<?xml version="1.0" encoding="UTF-8"?>
<svg xmlns="http://www.w3.org/2000/svg" id="Capa_21" data-name="Capa 21" viewBox="0 0 24 24">
  <path d="m10.255,9.43l4.447,2.53-4.447,2.529v-5.059Zm0,0"/>
  <path d="m24,0H0v24h24V0Zm-3.855,16.081c-.195.737-.772,1.317-1.504,1.514-1.327.358-6.647.358-6.647.358,0,0-5.32,0-6.646-.358-.732-.197-1.309-.777-1.504-1.514-.356-1.335-.356-4.121-.356-4.121,0,0,0-2.786.356-4.122.195-.737.772-1.317,1.504-1.514,1.327-.358,6.646-.358,6.646-.358,0,0,5.32,0,6.647.358.732.197,1.309.777,1.504,1.514.356,1.335.356,4.122.356,4.122,0,0,0,2.786-.356,4.121h0Zm0,0"/>
</svg>
